<svg xmlns="http://www.w3.org/2000/svg" viewBox="0 0 512 512" fill="none">
  <!-- Left brace { -->
  <path d="M96 128c0-32 16-48 48-48h16v40h-8c-16 0-24 8-24 24v72c0 24-12 40-32 48 20 8 32 24 32 48v72c0 16 8 24 24 24h8v40h-16c-32 0-48-16-48-48v-64c0-24-8-32-32-32v-40c24 0 32-8 32-32v-64z" fill="#00D4AA"/>
  <!-- M -->
  <path d="M192 192h40l24 64 24-64h40v128h-36v-72l-20 52h-16l-20-52v72h-36V192z" fill="#00D4AA"/>
  <!-- V -->
  <path d="M340 192h38l-19 80v0z" fill="#FF6B00"/>
  <path d="M330 192l30 128 30-128h40l-50 128h-40l-50-128h40z" fill="#00D4AA"/>
  <!-- C -->
  <path d="M440 240c-4-12-12-16-24-16-16 0-28 12-28 32s12 32 28 32c12 0 20-4 24-16h36c-4 28-28 48-60 48-40 0-64-28-64-64s24-64 64-64c32 0 56 20 60 48h-36z" fill="#00D4AA"/>
  <!-- Right brace } -->
  <path d="M416 128c0-32-16-48-48-48h-16v40h8c16 0 24 8 24 24v72c0 24 12 40 32 48-20 8-32 24-32 48v72c0 16-8 24-24 24h-8v40h16c32 0 48-16 48-48v-64c0-24 8-32 32-32v-40c-24 0-32-8-32-32v-64z" fill="#00D4AA"/>
  <!-- Orange dot accent -->
  <circle cx="360" cy="330" r="8" fill="#FF6B00"/>
</svg>
